<?xml version="1.0" encoding="UTF-8"?>
<!DOCTYPE svg PUBLIC "-//W3C//DTD SVG 1.1//EN" "http://www.w3.org/Graphics/SVG/1.1/DTD/svg11.dtd">
<!-- Creator: CorelDRAW X7 -->
<svg xmlns="http://www.w3.org/2000/svg" xml:space="preserve" width="291.493mm" height="291.493mm" version="1.1" style="shape-rendering:geometricPrecision; text-rendering:geometricPrecision; image-rendering:optimizeQuality; fill-rule:evenodd; clip-rule:evenodd"
viewBox="0 0 29163 29163"
 xmlns:xlink="http://www.w3.org/1999/xlink">
 <defs>
  <style type="text/css">
   <![CDATA[
    .fil0 {fill:#4D4D4D}
    .fil1 {fill:#EDEDED}
   ]]>
  </style>
 </defs>
 <g id="Layer_x0020_1">
  <metadata id="CorelCorpID_0Corel-Layer"/>
  <g id="_2552424297328">
   <circle class="fil0" cx="14581" cy="14581" r="14581"/>
   <path class="fil1" d="M17142 5326c-644,0 -904,-137 -1506,233 -466,287 -1328,794 -1917,1232 -671,507 -2218,1506 -3094,3053 -877,1534 -1630,2506 -1862,3053 -233,548 -178,1055 -192,1534 -27,479 -247,890 -466,1054 -205,164 -876,1000 -1232,1712 -342,725 -945,1916 -903,2628 27,630 575,1096 794,1178 137,55 356,-192 205,-329 -151,-137 -643,-383 -589,-602 55,-233 397,-425 671,-370 288,41 438,110 562,27 136,-95 520,-451 575,-862 68,-411 95,-1670 643,-2656 534,-972 1232,-1068 1109,-1397 -123,-328 -356,-164 -397,-520 -41,-370 55,-1301 151,-1136 109,164 82,794 315,616 232,-178 479,-425 1013,-411 534,14 985,14 985,14 0,0 302,-28 220,123 -55,123 -384,589 -699,1013 -274,383 -534,507 -575,520 -164,69 -602,165 -739,397 -219,397 -96,466 -137,575 589,849 1355,1767 2232,2301 493,301 1136,602 1670,725 1725,384 1821,2191 1698,3327 411,-205 1068,-369 2245,-410 -55,-274 -109,-603 -150,-808 -55,-356 191,-699 493,-1027 1013,-1082 3135,-4642 3491,-6271 246,-1191 342,-2546 219,-3436 -123,-849 -397,-1616 -383,-1739 13,-96 95,-178 150,-55 2492,6901 -3957,11432 -3710,12569 68,287 109,534 150,767 83,0 178,0 274,0 2985,0 3752,13 5340,-562 890,-326 2122,-375 3157,-306 1022,-1941 1601,-4152 1601,-6499 0,-4310 -1952,-8164 -5020,-10727 -1199,356 -2010,676 -2079,664 -96,0 -69,-2163 -699,-2273 -643,-123 -3696,2177 -3614,3081l0 0zm-7202 10844c-82,68 -178,137 -329,232 -342,220 -766,699 -917,1151 -260,753 -192,1341 -301,1752 -123,397 -110,671 -425,849 -314,192 -848,1068 -657,1506 178,452 1041,1082 1766,1246 315,82 534,137 699,205 1369,-643 3286,-1588 3724,-2957 274,-849 -575,-1136 -1342,-1616 -862,-547 -1602,-1561 -2218,-2368l0 0zm27 7051c55,68 96,137 110,233 27,287 233,1300 780,1629 548,328 1589,274 2218,123 890,-219 1233,-1643 1767,-2149 205,-178 342,-411 657,-603 27,-520 41,-1191 -178,-1848 -164,-493 -890,-1588 -1520,-1109 -27,13 69,452 -96,917 -328,958 -2423,2328 -3738,2807l0 0zm8777 -18046c328,-917 1300,-1930 1561,-2163 260,-246 424,288 520,835 96,548 -110,2095 -466,2574 -356,466 -835,315 -985,589 -124,233 -165,493 -137,685 0,68 27,82 -14,123 -479,520 -794,-1753 -479,-2643l0 0z"/>
  </g>
 </g>
</svg>
