<?xml version="1.0" encoding="UTF-8"?>
<!DOCTYPE svg PUBLIC "-//W3C//DTD SVG 1.1//EN" "http://www.w3.org/Graphics/SVG/1.1/DTD/svg11.dtd">
<!-- Creator: CorelDRAW X7 -->
<svg xmlns="http://www.w3.org/2000/svg" xml:space="preserve" width="76.5535mm" height="13.733mm" version="1.1" style="shape-rendering:geometricPrecision; text-rendering:geometricPrecision; image-rendering:optimizeQuality; fill-rule:evenodd; clip-rule:evenodd"
viewBox="0 0 7655 1373"
 xmlns:xlink="http://www.w3.org/1999/xlink">
 <defs>
  <style type="text/css">
   <![CDATA[
    .fil1 {fill:#4D4D4D;fill-rule:nonzero}
    .fil0 {fill:#B11226;fill-rule:nonzero}
   ]]>
  </style>
 </defs>
 <g id="Layer_x0020_1">
  <metadata id="CorelCorpID_0Corel-Layer"/>
  <g id="_2602679126192">
   <path class="fil0" d="M292 256c-22,18 -33,41 -33,71 0,29 13,53 40,70 26,17 88,38 184,62 96,23 170,59 224,106 29,26 51,60 64,100 10,-11 21,-20 33,-29 58,-40 138,-59 238,-59l162 0 0 -5c0,-83 -44,-124 -132,-124 -37,0 -77,7 -119,22 -42,15 -78,34 -107,56l-97 -141c95,-68 201,-105 320,-111l0 0c11,0 21,0 31,0 9,0 18,0 27,0l327 0 0 -233 219 0 0 233 180 0 8 0 209 0 0 116c28,-32 63,-59 105,-81 42,-23 85,-34 129,-35l0 0 212 0 0 88c93,-59 199,-88 315,-88 95,0 172,23 232,71 60,47 90,122 90,224l0 497 -205 0 0 -94c-56,71 -125,106 -207,106 -83,0 -152,-24 -208,-72 -6,-5 -12,-10 -17,-16l0 76 -218 0 0 -588 -35 0c-65,0 -113,23 -145,69 -32,46 -48,106 -48,182l0 337 -217 0 0 -22c-42,22 -86,34 -132,34 -75,0 -138,-25 -189,-74 -52,-49 -78,-116 -78,-201l0 -372 -57 0c16,38 24,85 24,138l0 497 -204 0 0 -94c-56,71 -125,106 -208,106 -82,0 -152,-24 -208,-72 -25,-22 -45,-48 -59,-76 -16,23 -35,44 -58,63 -181,151 -520,94 -684,-57l114 -169c83,74 300,163 404,84 23,-18 35,-42 35,-72 0,-31 -13,-55 -38,-73 -100,-71 -279,-58 -407,-163 -55,-45 -82,-116 -82,-212 0,-96 34,-170 103,-222 69,-52 156,-79 259,-79 90,0 207,30 288,69l0 198c-79,-39 -307,-105 -384,-41zm2224 180l0 215c6,-5 13,-10 20,-15 58,-40 137,-59 237,-59l162 0 0 -5c0,-83 -44,-124 -131,-124 -38,0 -78,7 -120,22 -42,15 -77,34 -106,56l-62 -90zm418 333l0 -37 -136 0c-87,0 -131,27 -131,81 0,28 11,49 32,64 20,15 50,23 89,23 38,0 72,-12 102,-36 29,-24 44,-55 44,-95zm-617 -551c-25,-25 -37,-55 -37,-91 0,-35 12,-65 37,-90 24,-25 54,-37 90,-37 36,0 66,12 91,37 24,25 37,55 37,90 0,36 -13,66 -37,91 -25,25 -55,37 -91,37 -36,0 -66,-12 -90,-37zm-464 213l-180 0 0 361c0,30 8,54 23,71 15,17 34,25 55,25 40,0 74,-18 102,-54l0 -403zm-650 338l0 -37 -136 0c-87,0 -131,27 -131,81 0,28 11,49 31,64 21,15 51,23 89,23 39,0 73,-12 103,-36 29,-24 44,-55 44,-95z"/>
   <polygon class="fil0" points="3954,54 3954,252 3485,252 3485,471 3854,471 3854,669 3485,669 3485,1066 3259,1066 3259,54 "/>
   <path class="fil0" d="M3736 1041c-25,-25 -37,-55 -37,-91 0,-35 12,-66 37,-90 25,-25 55,-37 91,-37 35,0 66,12 90,37 25,24 37,55 37,90 0,36 -12,66 -37,91 -24,24 -55,37 -90,37 -36,0 -66,-13 -91,-37z"/>
   <path class="fil1" d="M6930 660c0,-62 -18,-111 -53,-147 -34,-36 -77,-54 -128,-54 -52,0 -96,18 -133,54 -37,36 -56,84 -56,146 0,62 18,112 55,150 36,38 80,57 132,57 52,0 96,-19 130,-56 35,-38 53,-88 53,-150zm-2512 -606c181,0 319,44 416,132 62,57 105,129 127,215 6,-6 12,-12 19,-19 79,-72 171,-108 279,-108 107,0 198,32 273,97 27,23 49,50 66,79 13,-42 39,-78 77,-108 58,-45 133,-68 225,-68 86,0 172,27 258,82l0 -69 218 0 0 207c17,-41 42,-77 73,-109 72,-74 155,-111 247,-111 93,0 170,38 231,114l0 -103 217 0 0 89c66,-67 140,-100 222,-100 82,0 151,29 206,87 56,58 83,135 83,232l0 473 -217 0 0 -440c0,-120 -44,-180 -132,-180 -43,0 -81,16 -113,47 -33,32 -49,78 -49,139l0 333c0,69 -12,131 -36,185 -24,54 -57,97 -97,128 -80,63 -175,95 -284,95 -58,0 -117,-9 -178,-28 -60,-19 -113,-46 -158,-80l84 -164c71,54 147,81 226,81 80,0 143,-20 189,-59 47,-40 70,-103 70,-189 -69,77 -154,115 -256,115 -102,0 -187,-35 -258,-104 -30,-29 -53,-64 -70,-102l0 223 -218 0 0 -120c-13,23 -31,44 -53,62 -57,47 -129,70 -215,70l-619 0c-118,0 -216,-37 -293,-110 -35,-32 -61,-69 -81,-112 -17,26 -37,50 -60,73 -94,91 -237,137 -431,137l-346 0 0 -1012 358 0zm1740 342l-64 115c-68,-46 -135,-69 -202,-69 -67,0 -101,18 -101,55 0,20 11,36 32,48 21,11 56,25 106,40 49,16 84,28 105,36 20,8 45,21 74,38 21,13 37,28 50,47l0 -310zm18 -178c-24,-25 -37,-55 -37,-91 0,-35 13,-65 37,-90 25,-25 55,-37 91,-37 36,0 66,12 90,37 25,25 37,55 37,90 0,36 -12,66 -37,91 -24,25 -54,37 -90,37 -36,0 -66,-12 -91,-37zm-906 694c212,0 411,1 623,1 39,0 74,-30 79,-69 1,-4 1,-7 1,-11 0,-44 -36,-80 -80,-80 -276,0 -540,0 -817,0 13,82 117,159 194,159zm154 -314c-5,-46 -22,-82 -52,-107 -30,-25 -67,-38 -110,-38 -43,0 -82,13 -118,40 -35,26 -56,61 -62,105l342 0zm-994 268c103,0 182,-26 238,-78 55,-52 83,-128 83,-227 0,-100 -28,-176 -83,-230 -56,-54 -141,-80 -256,-80l-126 0 0 615 144 0z"/>
  </g>
 </g>
</svg>
