<?xml version="1.0" encoding="UTF-8"?>
<!DOCTYPE svg PUBLIC "-//W3C//DTD SVG 1.1//EN" "http://www.w3.org/Graphics/SVG/1.1/DTD/svg11.dtd">
<!-- Creator: CorelDRAW X7 -->
<svg xmlns="http://www.w3.org/2000/svg" xml:space="preserve" width="10.6549in" height="5.59291in" version="1.1" style="shape-rendering:geometricPrecision; text-rendering:geometricPrecision; image-rendering:optimizeQuality; fill-rule:evenodd; clip-rule:evenodd"
viewBox="0 0 2323 1220"
 xmlns:xlink="http://www.w3.org/1999/xlink">
 <defs>
  <style type="text/css">
   <![CDATA[
    .fil1 {fill:#333333}
    .fil0 {fill:#4D4D4D}
    .fil3 {fill:#4D4D4D;fill-rule:nonzero}
    .fil2 {fill:#B11226;fill-rule:nonzero}
   ]]>
  </style>
 </defs>
 <g id="Layer_x0020_1">
  <metadata id="CorelCorpID_0Corel-Layer"/>
  <g id="_1113649152">
   <g>
    <path class="fil0" d="M555 233c-8,0 -10,-2 -17,3 -6,3 -16,9 -22,14 -8,5 -26,17 -36,35 -10,17 -18,28 -21,35 -3,6 -2,12 -2,17 -1,6 -3,10 -5,12 -3,2 -11,12 -15,20 -4,8 -10,22 -10,30 0,7 7,12 9,13 2,1 4,-2 3,-3 -2,-2 -8,-5 -7,-7 0,-3 4,-5 8,-5 3,1 4,2 6,1 1,-1 6,-6 6,-10 1,-5 2,-19 8,-30 6,-12 14,-13 13,-17 -2,-3 -5,-1 -5,-6 -1,-4 1,-14 2,-12 1,1 1,9 3,7 3,-2 6,-5 12,-5 6,0 11,0 11,0 0,0 4,0 3,2 -1,1 -5,6 -8,11 -3,4 -7,6 -7,6 -2,1 -7,2 -8,5 -3,4 -1,5 -2,6 7,10 16,20 26,26 5,4 13,7 19,9 19,4 20,25 19,38 5,-3 12,-4 26,-5 -1,-3 -1,-7 -2,-9 -1,-4 2,-8 6,-12 11,-12 36,-53 40,-72 3,-13 4,-29 2,-39 -1,-10 -4,-18 -4,-20 0,-1 1,-2 1,0 29,78 -45,130 -42,143 1,4 1,6 2,9 1,0 2,0 3,0 34,0 43,0 61,-6 18,-7 49,-4 57,0 4,2 7,4 10,7 1,-3 3,-7 5,-11 13,-23 40,-49 73,-63 6,-3 9,-5 14,0 -30,10 -52,28 -66,45 -16,19 -21,34 -21,34 0,0 -17,47 -9,95l0 0c8,14 17,26 29,38 13,12 18,14 18,14 0,0 1,2 -1,1 -22,-9 -39,-32 -52,-49 -11,8 -37,29 -87,84 -37,40 -65,68 -83,86 -23,22 -29,37 -61,46 -4,2 -18,-4 -24,-3 -26,5 -46,35 1,41l65 8c25,3 24,-10 44,-21 20,-10 12,2 24,-3 12,-5 5,-11 13,-23l-3 0c-10,0 -20,-1 -31,-4 -8,-2 -10,-2 -11,-3 -13,-5 27,0 28,0 7,2 15,2 23,1 18,-14 70,-40 103,-59 39,-21 56,-35 71,-43 16,-9 19,-11 34,-14 16,-3 39,-17 38,-27 0,-18 27,-62 62,-101 34,-37 76,-69 90,-62 0,0 -109,67 -109,109 0,0 17,9 54,13 13,2 32,3 45,1 5,0 9,-2 14,-1 49,4 77,22 157,7 90,-18 96,-51 148,-63 42,-10 89,6 106,13 5,2 0,-2 -1,-3 -13,-9 -85,-84 -47,-54 53,41 93,99 143,127 34,18 90,48 147,56 57,8 130,22 142,27 5,2 11,5 18,8 0,-1 1,-3 1,-4 4,-9 5,-29 7,-33 7,-14 1,30 1,30 -1,4 -2,8 -3,11 5,3 9,7 11,11 5,9 8,16 16,29 8,13 10,17 9,21 0,4 -7,11 -12,11 -5,0 -14,-7 -21,-4 -7,2 -19,22 -19,28 1,6 6,15 26,15l53 0c15,0 35,-32 33,-39 -1,-1 -3,-6 -5,-12 -9,-23 -28,-68 -33,-81 -7,-16 -17,-53 -21,-59 -5,-6 -7,-10 -21,-6 -15,5 -45,-3 -62,-15 -17,-12 -41,-25 -63,-66 -1,-2 -3,-5 -4,-7 -1,0 -1,1 -1,2 -2,4 -1,15 1,19 2,12 4,22 7,29 3,7 7,11 9,18 4,13 -5,1 -13,-18 -9,-22 -12,-43 -14,-66 -31,-46 -91,-114 -100,-124 33,-2 138,11 192,6 71,-7 105,-50 102,-87 -3,-30 -21,-51 -45,-67 -37,-26 -98,-45 -115,-89 -11,-28 -2,-58 30,-73 19,-10 44,-9 67,-7 43,3 59,-12 54,-23 -5,-12 -3,-28 -22,-17 -15,8 -33,7 -51,7 -96,5 -150,101 -66,167 48,38 132,75 111,114 -24,45 -112,40 -154,29 -48,-13 -189,-53 -232,-59 -24,-4 -95,-17 -158,-9 -37,4 -69,13 -100,17 13,16 32,39 37,43 8,6 36,37 5,12 -18,-15 -36,-38 -49,-55 -19,2 -38,2 -59,-3 -55,-14 -133,-25 -163,-37 -30,-12 -32,-38 -100,-29 -22,2 -34,3 -41,3 13,55 -32,106 -13,69 9,-17 11,-52 5,-69 -7,-1 -8,-3 -28,-3 -39,1 -109,3 -136,8 -27,6 -49,15 -50,15 -1,0 -1,-25 -8,-26 -7,-2 -42,25 -41,35zm-83 124c0,1 -2,2 -3,3 -4,2 -9,8 -11,13 -3,9 -2,15 -3,20 -2,4 -1,7 -5,10 -4,2 -10,12 -8,17 2,5 12,12 21,14 3,1 6,2 8,2 15,-7 37,-18 42,-33 3,-10 -6,-13 -15,-19 -10,-6 -19,-18 -26,-27zm1 81c0,0 1,1 1,2 0,4 3,15 9,19 6,4 18,3 25,1 11,-2 14,-18 21,-24 2,-2 3,-5 7,-7 0,-6 1,-14 -2,-21 -2,-6 -10,-18 -17,-13 -1,0 0,5 -1,11 -4,10 -28,26 -43,32zm393 106c0,1 19,47 42,84 24,38 33,54 34,76 2,22 1,41 -7,45 -7,4 -14,0 -19,0 -5,0 -21,-6 -32,2 -10,7 -13,18 -10,26 1,3 3,4 6,4 6,1 43,7 70,2 22,-4 31,13 38,-8 4,-8 6,-18 13,-29 9,-15 22,-28 20,-40 -1,-5 -4,-11 -7,-19 -3,2 -7,4 -11,6 -19,10 -20,11 -19,9 2,-3 8,-10 17,-16 3,-2 7,-5 10,-7 -4,-13 -8,-27 -7,-40 1,-25 5,-37 1,-58 -4,-20 -8,-22 -8,-22 0,0 -54,16 -131,-15zm423 -37c0,0 -25,47 -26,89 0,42 14,87 -3,109 -16,23 -44,41 -53,41 -5,0 -9,2 -23,1 -13,-2 -24,1 -26,1 -7,4 -14,11 -21,23 -8,16 22,26 33,26l55 -1c17,-1 33,-21 45,-26 35,-18 49,-14 58,-50 2,-8 7,-19 14,-31 -4,0 -8,-1 -13,-1 -8,-1 -12,1 -14,1 -25,-3 17,-6 19,-6 3,0 7,0 11,-1 4,-6 8,-13 12,-20 20,-31 47,-51 72,-71 25,-21 29,-27 29,-27 0,0 -33,-32 -54,-42 -31,-16 -82,-25 -115,-15zm-716 -276c4,-10 15,-22 18,-25 3,-2 5,4 6,10 1,6 -1,24 -5,29 -4,6 -10,4 -12,7 -1,3 -1,6 -1,8 0,1 0,1 0,1 -6,6 -9,-20 -6,-30z"/>
    <path class="fil1" d="M1289 507l82 136c18,-21 39,-36 58,-52 25,-21 29,-27 29,-27 0,0 -33,-32 -54,-42 -31,-16 -82,-25 -115,-15z"/>
    <path class="fil1" d="M1005 581c-4,-20 -8,-22 -8,-22 0,0 -37,11 -95,-3l85 142c3,-4 8,-8 14,-12 3,-2 7,-5 10,-7 -4,-13 -8,-27 -7,-40 1,-25 5,-37 1,-58z"/>
    <path class="fil1" d="M1014 687c-3,2 -7,4 -11,6 -7,4 -11,6 -14,8l20 33c7,-10 14,-19 12,-28 -1,-5 -4,-11 -7,-19z"/>
   </g>
   <g>
    <path class="fil2" d="M86 889c-6,6 -9,13 -9,21 0,9 3,16 11,21 8,5 26,11 55,18 28,7 50,18 66,32 9,8 15,17 19,29 3,-3 6,-6 10,-8 17,-12 40,-18 70,-18l48 0 0 -1c0,-25 -13,-37 -39,-37 -11,0 -23,2 -35,7 -13,4 -23,10 -32,16l-29 -41c28,-21 60,-31 95,-33l0 0c3,0 6,0 9,0 3,0 5,0 8,0l97 0 0 -69 64 0 0 69 53 0 3 0 62 0 0 34c8,-9 18,-17 31,-24 12,-7 25,-10 38,-10l0 0 62 0 0 26c28,-18 59,-26 93,-26 28,0 51,7 69,21 18,14 26,36 26,66l0 147 -60 0 0 -28c-16,21 -37,31 -61,31 -25,0 -45,-7 -62,-21 -2,-1 -3,-3 -5,-5l0 23 -64 0 0 -174 -10 0c-20,0 -34,7 -43,20 -10,14 -14,32 -14,54l0 100 -65 0 0 -7c-12,7 -25,10 -38,10 -23,0 -41,-7 -57,-22 -15,-14 -22,-34 -22,-59l0 -110 -17 0c5,12 7,25 7,41l0 147 -60 0 0 -28c-17,21 -37,31 -62,31 -24,0 -45,-7 -61,-21 -8,-6 -14,-14 -18,-23 -4,7 -10,14 -17,19 -54,45 -154,28 -202,-17l34 -49c24,21 88,48 119,24 7,-5 10,-12 10,-21 0,-9 -3,-16 -11,-21 -29,-22 -82,-18 -120,-49 -16,-13 -24,-34 -24,-62 0,-29 10,-51 30,-66 21,-15 46,-23 77,-23 26,0 61,9 85,20l0 59c-24,-12 -91,-31 -114,-13zm657 54l0 63c2,-1 4,-3 6,-4 17,-12 41,-18 70,-18l48 0 0 -1c0,-25 -13,-37 -39,-37 -11,0 -23,2 -35,7 -12,4 -23,10 -31,16l-19 -26zm124 98l0 -11 -40 0c-26,0 -39,8 -39,24 0,8 3,15 9,19 6,4 15,7 27,7 11,0 21,-4 30,-11 8,-7 13,-16 13,-28zm-183 -163c-7,-7 -11,-16 -11,-26 0,-11 4,-20 11,-27 8,-7 17,-11 27,-11 11,0 20,4 27,11 7,7 11,16 11,27 0,10 -4,19 -11,26 -7,8 -16,11 -27,11 -10,0 -19,-3 -27,-11zm-137 63l-53 0 0 107c0,9 2,16 7,21 5,5 10,7 16,7 12,0 22,-5 30,-16l0 -119zm-192 100l0 -11 -40 0c-26,0 -38,8 -38,24 0,8 3,15 9,19 6,4 15,7 26,7 12,0 22,-4 30,-11 9,-7 13,-16 13,-28z"/>
    <g>
     <polygon class="fil2" points="1168,830 1168,888 1030,888 1030,953 1139,953 1139,1012 1030,1012 1030,1129 963,1129 963,830 "/>
     <path class="fil2" d="M1104 1121c-7,-7 -11,-16 -11,-26 0,-11 4,-20 11,-27 7,-7 16,-11 27,-11 10,0 19,4 26,11 8,7 11,16 11,27 0,10 -3,19 -11,26 -7,8 -16,11 -26,11 -11,0 -20,-3 -27,-11z"/>
    </g>
    <path class="fil3" d="M2047 1009c0,-19 -5,-33 -15,-44 -10,-10 -23,-15 -38,-15 -15,0 -28,5 -39,15 -11,11 -17,25 -17,44 0,18 5,33 16,44 11,11 24,17 39,17 16,0 29,-6 39,-17 10,-11 15,-26 15,-44zm-742 -179c54,0 95,13 123,39 19,17 31,38 38,63 1,-1 3,-3 5,-5 23,-22 51,-32 83,-32 31,0 58,9 80,28 8,7 15,15 20,24 4,-13 11,-23 23,-32 17,-14 39,-20 66,-20 25,0 51,8 76,24l0 -20 65 0 0 61c5,-12 12,-23 21,-32 22,-22 46,-33 73,-33 28,0 50,11 68,34l0 -31 65 0 0 26c19,-19 41,-29 65,-29 24,0 45,8 61,25 16,18 25,40 25,69l0 140 -65 0 0 -130c0,-36 -13,-53 -38,-53 -13,0 -25,4 -34,14 -10,9 -14,23 -14,40l0 99c0,20 -4,39 -11,55 -7,16 -17,28 -29,37 -23,19 -51,29 -84,29 -17,0 -34,-3 -52,-9 -18,-5 -34,-13 -47,-24l25 -48c21,16 43,24 67,24 23,0 42,-6 56,-17 13,-12 20,-31 20,-56 -20,22 -45,34 -75,34 -30,0 -56,-10 -76,-31 -9,-9 -16,-19 -21,-30l0 66 -65 0 0 -36c-4,7 -9,13 -15,19 -17,13 -38,20 -64,20l-183 0c-35,0 -64,-10 -86,-32 -11,-10 -18,-21 -24,-33 -5,8 -11,15 -18,21 -28,27 -70,41 -127,41l-102 0 0 -299 105 0zm514 101l-19 34c-20,-14 -40,-21 -59,-21 -20,0 -30,6 -30,17 0,6 3,10 9,14 7,3 17,7 32,12 14,4 24,8 31,10 6,3 13,6 22,12 6,3 11,8 14,13l0 -91zm6 -53c-8,-7 -11,-16 -11,-26 0,-11 3,-20 11,-27 7,-7 16,-11 26,-11 11,0 20,4 27,11 7,7 11,16 11,27 0,10 -4,19 -11,26 -7,8 -16,11 -27,11 -10,0 -19,-3 -26,-11zm-268 205c63,0 121,0 184,0 12,0 22,-8 23,-20 0,-1 1,-2 1,-3 0,-13 -11,-24 -24,-24 -82,0 -160,0 -241,0 4,24 34,47 57,47zm45 -92c-1,-14 -6,-25 -15,-32 -9,-7 -20,-11 -32,-11 -13,0 -25,4 -35,11 -11,8 -17,19 -19,32l101 0zm-293 79c30,0 54,-8 70,-23 16,-16 25,-38 25,-67 0,-30 -9,-52 -25,-68 -16,-16 -42,-24 -75,-24l-38 0 0 182 43 0z"/>
   </g>
   <path class="fil3" d="M2217 843l46 0 0 12 -15 0 0 37 -15 0 0 -37 -16 0 0 -12zm52 0l19 0 8 30 8 -30 19 0 0 49 -12 0 0 -37 -9 37 -12 0 -9 -37 0 37 -12 0 0 -49z"/>
  </g>
 </g>
</svg>
