<?xml version="1.0" encoding="UTF-8"?>
<!DOCTYPE svg PUBLIC "-//W3C//DTD SVG 1.1//EN" "http://www.w3.org/Graphics/SVG/1.1/DTD/svg11.dtd">
<!-- Creator: CorelDRAW X7 -->
<svg xmlns="http://www.w3.org/2000/svg" xml:space="preserve" width="210mm" height="210mm" version="1.1" style="shape-rendering:geometricPrecision; text-rendering:geometricPrecision; image-rendering:optimizeQuality; fill-rule:evenodd; clip-rule:evenodd"
viewBox="0 0 9946 9946"
 xmlns:xlink="http://www.w3.org/1999/xlink">
 <defs>
  <style type="text/css">
   <![CDATA[
    .fil0 {fill:white}
   ]]>
  </style>
 </defs>
 <g id="Layer_x0020_1">
  <metadata id="CorelCorpID_0Corel-Layer"/>
  <path class="fil0" d="M8456 1445c-930,-932 -2169,-1445 -3485,-1445 -2718,0 -4929,2211 -4929,4928 0,868 227,1716 657,2465l-699 2553 2613 -686c719,392 1529,599 2355,599l3 0c2715,0 4975,-2211 4975,-4928 0,-1317 -560,-2553 -1490,-3486zm-3485 7584c-737,0 -1459,-198 -2087,-571l-149 -89 -1550 407 413 -1512 -97 -156c-411,-652 -626,-1405 -626,-2180 0,-2257 1838,-4096 4098,-4096 1094,0 2122,427 2895,1201 772,775 1247,1803 1245,2898 0,2260 -1885,4098 -4142,4098zm2246 -3068c-122,-63 -728,-360 -841,-400 -113,-42 -196,-62 -278,62 -82,125 -317,400 -390,484 -71,82 -145,93 -267,31 -724,-362 -1199,-646 -1676,-1465 -126,-217 127,-202 362,-673 40,-82 20,-153 -11,-215 -31,-62 -278,-668 -380,-915 -100,-239 -202,-206 -277,-210 -71,-5 -153,-5 -236,-5 -82,0 -215,31 -328,153 -113,125 -431,422 -431,1028 0,606 442,1192 502,1274 62,83 868,1326 2104,1861 782,337 1088,366 1479,308 237,-35 728,-297 830,-586 102,-288 102,-535 71,-586 -29,-55 -111,-86 -233,-146l0 0z"/>
 </g>
</svg>
